<?xml version="1.0" standalone="no"?><svg xmlns="http://www.w3.org/2000/svg" viewBox="0 0 1440 320"><path fill="#0099ff" fill-opacity="1" d="M0,256L21.8,261.3C43.6,267,87,277,131,250.7C174.5,224,218,160,262,165.3C305.5,171,349,245,393,266.7C436.4,288,480,256,524,240C567.3,224,611,224,655,197.3C698.2,171,742,117,785,133.3C829.1,149,873,235,916,234.7C960,235,1004,149,1047,144C1090.9,139,1135,213,1178,224C1221.8,235,1265,181,1309,170.7C1352.7,160,1396,192,1418,208L1440,224L1440,0L1418.2,0C1396.4,0,1353,0,1309,0C1265.5,0,1222,0,1178,0C1134.5,0,1091,0,1047,0C1003.6,0,960,0,916,0C872.7,0,829,0,785,0C741.8,0,698,0,655,0C610.9,0,567,0,524,0C480,0,436,0,393,0C349.1,0,305,0,262,0C218.2,0,175,0,131,0C87.3,0,44,0,22,0L0,0Z"></path></svg>